<svg xmlns="http://www.w3.org/2000/svg" xmlns:xlink="http://www.w3.org/1999/xlink" width="500" zoomAndPan="magnify" viewBox="0 0 375 374.999991" height="500" preserveAspectRatio="xMidYMid meet" version="1.0"><defs><g/><clipPath id="3c8b5dbeda"><path d="M 37.5 37.5 L 337.5 37.5 L 337.5 337.5 L 37.5 337.5 Z M 37.5 37.5 " clip-rule="nonzero"/></clipPath><clipPath id="721725e0b8"><path d="M 187.5 37.5 C 104.65625 37.5 37.5 104.65625 37.5 187.5 C 37.5 270.34375 104.65625 337.5 187.5 337.5 C 270.34375 337.5 337.5 270.34375 337.5 187.5 C 337.5 104.65625 270.34375 37.5 187.5 37.5 Z M 187.5 37.5 " clip-rule="nonzero"/></clipPath><clipPath id="bf26c72ea7"><path d="M 91.289062 91.289062 L 283.710938 91.289062 L 283.710938 283.710938 L 91.289062 283.710938 Z M 91.289062 91.289062 " clip-rule="nonzero"/></clipPath><clipPath id="8bfb88e662"><path d="M 187.5 91.289062 C 134.363281 91.289062 91.289062 134.363281 91.289062 187.5 C 91.289062 240.636719 134.363281 283.710938 187.5 283.710938 C 240.636719 283.710938 283.710938 240.636719 283.710938 187.5 C 283.710938 134.363281 240.636719 91.289062 187.5 91.289062 Z M 187.5 91.289062 " clip-rule="nonzero"/></clipPath><linearGradient x1="-0.00000639113" gradientTransform="matrix(0.751634, 0, 0, 0.751634, 91.290903, 91.290898)" y1="0" x2="255.999983" gradientUnits="userSpaceOnUse" y2="0" id="7753d9e306"><stop stop-opacity="1" stop-color="rgb(31.799316%, 43.899536%, 100%)" offset="0"/><stop stop-opacity="1" stop-color="rgb(32.064819%, 43.884277%, 99.908447%)" offset="0.00390625"/><stop stop-opacity="1" stop-color="rgb(32.331848%, 43.869019%, 99.81842%)" offset="0.0078125"/><stop stop-opacity="1" stop-color="rgb(32.597351%, 43.85376%, 99.728394%)" offset="0.0117188"/><stop stop-opacity="1" stop-color="rgb(32.86438%, 43.838501%, 99.638367%)" offset="0.015625"/><stop stop-opacity="1" stop-color="rgb(33.129883%, 43.823242%, 99.54834%)" offset="0.0195313"/><stop stop-opacity="1" stop-color="rgb(33.396912%, 43.807983%, 99.458313%)" offset="0.0234375"/><stop stop-opacity="1" stop-color="rgb(33.66394%, 43.792725%, 99.36676%)" offset="0.0273438"/><stop stop-opacity="1" stop-color="rgb(33.930969%, 43.777466%, 99.276733%)" offset="0.03125"/><stop stop-opacity="1" stop-color="rgb(34.196472%, 43.762207%, 99.186707%)" offset="0.0351563"/><stop stop-opacity="1" stop-color="rgb(34.463501%, 43.746948%, 99.09668%)" offset="0.0390625"/><stop stop-opacity="1" stop-color="rgb(34.729004%, 43.731689%, 99.006653%)" offset="0.0429688"/><stop stop-opacity="1" stop-color="rgb(34.996033%, 43.716431%, 98.916626%)" offset="0.046875"/><stop stop-opacity="1" stop-color="rgb(35.261536%, 43.701172%, 98.826599%)" offset="0.0507813"/><stop stop-opacity="1" stop-color="rgb(35.528564%, 43.685913%, 98.736572%)" offset="0.0546875"/><stop stop-opacity="1" stop-color="rgb(35.794067%, 43.670654%, 98.64502%)" offset="0.0585938"/><stop stop-opacity="1" stop-color="rgb(36.061096%, 43.655396%, 98.554993%)" offset="0.0625"/><stop stop-opacity="1" stop-color="rgb(36.328125%, 43.640137%, 98.464966%)" offset="0.0664062"/><stop stop-opacity="1" stop-color="rgb(36.595154%, 43.624878%, 98.374939%)" offset="0.0703125"/><stop stop-opacity="1" stop-color="rgb(36.860657%, 43.609619%, 98.284912%)" offset="0.0742188"/><stop stop-opacity="1" stop-color="rgb(37.127686%, 43.59436%, 98.194885%)" offset="0.078125"/><stop stop-opacity="1" stop-color="rgb(37.393188%, 43.579102%, 98.104858%)" offset="0.0820313"/><stop stop-opacity="1" stop-color="rgb(37.660217%, 43.563843%, 98.014832%)" offset="0.0859375"/><stop stop-opacity="1" stop-color="rgb(37.92572%, 43.548584%, 97.923279%)" offset="0.0898438"/><stop stop-opacity="1" stop-color="rgb(38.192749%, 43.533325%, 97.833252%)" offset="0.09375"/><stop stop-opacity="1" stop-color="rgb(38.458252%, 43.518066%, 97.743225%)" offset="0.0976562"/><stop stop-opacity="1" stop-color="rgb(38.725281%, 43.502808%, 97.653198%)" offset="0.101563"/><stop stop-opacity="1" stop-color="rgb(38.99231%, 43.487549%, 97.563171%)" offset="0.105469"/><stop stop-opacity="1" stop-color="rgb(39.259338%, 43.47229%, 97.473145%)" offset="0.109375"/><stop stop-opacity="1" stop-color="rgb(39.524841%, 43.457031%, 97.381592%)" offset="0.113281"/><stop stop-opacity="1" stop-color="rgb(39.79187%, 43.441772%, 97.291565%)" offset="0.117188"/><stop stop-opacity="1" stop-color="rgb(40.057373%, 43.426514%, 97.201538%)" offset="0.121094"/><stop stop-opacity="1" stop-color="rgb(40.324402%, 43.411255%, 97.111511%)" offset="0.125"/><stop stop-opacity="1" stop-color="rgb(40.589905%, 43.395996%, 97.021484%)" offset="0.128906"/><stop stop-opacity="1" stop-color="rgb(40.856934%, 43.380737%, 96.931458%)" offset="0.132812"/><stop stop-opacity="1" stop-color="rgb(41.122437%, 43.365479%, 96.841431%)" offset="0.136719"/><stop stop-opacity="1" stop-color="rgb(41.389465%, 43.35022%, 96.751404%)" offset="0.140625"/><stop stop-opacity="1" stop-color="rgb(41.654968%, 43.334961%, 96.659851%)" offset="0.144531"/><stop stop-opacity="1" stop-color="rgb(41.921997%, 43.319702%, 96.569824%)" offset="0.148438"/><stop stop-opacity="1" stop-color="rgb(42.189026%, 43.304443%, 96.479797%)" offset="0.152344"/><stop stop-opacity="1" stop-color="rgb(42.456055%, 43.289185%, 96.389771%)" offset="0.15625"/><stop stop-opacity="1" stop-color="rgb(42.721558%, 43.273926%, 96.299744%)" offset="0.160156"/><stop stop-opacity="1" stop-color="rgb(42.988586%, 43.258667%, 96.209717%)" offset="0.164063"/><stop stop-opacity="1" stop-color="rgb(43.254089%, 43.243408%, 96.11969%)" offset="0.167969"/><stop stop-opacity="1" stop-color="rgb(43.521118%, 43.229675%, 96.029663%)" offset="0.171875"/><stop stop-opacity="1" stop-color="rgb(43.786621%, 43.214417%, 95.93811%)" offset="0.175781"/><stop stop-opacity="1" stop-color="rgb(44.05365%, 43.199158%, 95.848083%)" offset="0.179688"/><stop stop-opacity="1" stop-color="rgb(44.319153%, 43.183899%, 95.758057%)" offset="0.183594"/><stop stop-opacity="1" stop-color="rgb(44.586182%, 43.16864%, 95.66803%)" offset="0.1875"/><stop stop-opacity="1" stop-color="rgb(44.85321%, 43.153381%, 95.578003%)" offset="0.191406"/><stop stop-opacity="1" stop-color="rgb(45.120239%, 43.138123%, 95.487976%)" offset="0.195312"/><stop stop-opacity="1" stop-color="rgb(45.385742%, 43.122864%, 95.396423%)" offset="0.199219"/><stop stop-opacity="1" stop-color="rgb(45.652771%, 43.107605%, 95.306396%)" offset="0.203125"/><stop stop-opacity="1" stop-color="rgb(45.918274%, 43.092346%, 95.21637%)" offset="0.207031"/><stop stop-opacity="1" stop-color="rgb(46.185303%, 43.077087%, 95.126343%)" offset="0.210938"/><stop stop-opacity="1" stop-color="rgb(46.450806%, 43.061829%, 95.036316%)" offset="0.214844"/><stop stop-opacity="1" stop-color="rgb(46.717834%, 43.04657%, 94.946289%)" offset="0.21875"/><stop stop-opacity="1" stop-color="rgb(46.983337%, 43.031311%, 94.856262%)" offset="0.222656"/><stop stop-opacity="1" stop-color="rgb(47.250366%, 43.016052%, 94.766235%)" offset="0.226563"/><stop stop-opacity="1" stop-color="rgb(47.515869%, 43.000793%, 94.674683%)" offset="0.230469"/><stop stop-opacity="1" stop-color="rgb(47.782898%, 42.985535%, 94.584656%)" offset="0.234375"/><stop stop-opacity="1" stop-color="rgb(48.049927%, 42.970276%, 94.494629%)" offset="0.238281"/><stop stop-opacity="1" stop-color="rgb(48.316956%, 42.955017%, 94.404602%)" offset="0.242188"/><stop stop-opacity="1" stop-color="rgb(48.582458%, 42.939758%, 94.314575%)" offset="0.246094"/><stop stop-opacity="1" stop-color="rgb(48.849487%, 42.9245%, 94.224548%)" offset="0.25"/><stop stop-opacity="1" stop-color="rgb(49.11499%, 42.909241%, 94.134521%)" offset="0.253906"/><stop stop-opacity="1" stop-color="rgb(49.382019%, 42.893982%, 94.044495%)" offset="0.257813"/><stop stop-opacity="1" stop-color="rgb(49.647522%, 42.878723%, 93.952942%)" offset="0.261719"/><stop stop-opacity="1" stop-color="rgb(49.914551%, 42.863464%, 93.862915%)" offset="0.265625"/><stop stop-opacity="1" stop-color="rgb(50.180054%, 42.848206%, 93.772888%)" offset="0.269531"/><stop stop-opacity="1" stop-color="rgb(50.447083%, 42.832947%, 93.682861%)" offset="0.273438"/><stop stop-opacity="1" stop-color="rgb(50.714111%, 42.817688%, 93.592834%)" offset="0.277344"/><stop stop-opacity="1" stop-color="rgb(50.98114%, 42.802429%, 93.502808%)" offset="0.28125"/><stop stop-opacity="1" stop-color="rgb(51.246643%, 42.78717%, 93.411255%)" offset="0.285156"/><stop stop-opacity="1" stop-color="rgb(51.513672%, 42.771912%, 93.321228%)" offset="0.289063"/><stop stop-opacity="1" stop-color="rgb(51.779175%, 42.756653%, 93.231201%)" offset="0.292969"/><stop stop-opacity="1" stop-color="rgb(52.046204%, 42.741394%, 93.141174%)" offset="0.296875"/><stop stop-opacity="1" stop-color="rgb(52.311707%, 42.726135%, 93.051147%)" offset="0.300781"/><stop stop-opacity="1" stop-color="rgb(52.578735%, 42.710876%, 92.961121%)" offset="0.304688"/><stop stop-opacity="1" stop-color="rgb(52.844238%, 42.695618%, 92.871094%)" offset="0.308594"/><stop stop-opacity="1" stop-color="rgb(53.111267%, 42.680359%, 92.781067%)" offset="0.3125"/><stop stop-opacity="1" stop-color="rgb(53.37677%, 42.6651%, 92.689514%)" offset="0.316406"/><stop stop-opacity="1" stop-color="rgb(53.643799%, 42.649841%, 92.599487%)" offset="0.320312"/><stop stop-opacity="1" stop-color="rgb(53.910828%, 42.634583%, 92.50946%)" offset="0.324219"/><stop stop-opacity="1" stop-color="rgb(54.177856%, 42.619324%, 92.419434%)" offset="0.328125"/><stop stop-opacity="1" stop-color="rgb(54.443359%, 42.604065%, 92.329407%)" offset="0.332031"/><stop stop-opacity="1" stop-color="rgb(54.710388%, 42.588806%, 92.23938%)" offset="0.335938"/><stop stop-opacity="1" stop-color="rgb(54.975891%, 42.573547%, 92.149353%)" offset="0.339844"/><stop stop-opacity="1" stop-color="rgb(55.24292%, 42.558289%, 92.059326%)" offset="0.34375"/><stop stop-opacity="1" stop-color="rgb(55.508423%, 42.54303%, 91.967773%)" offset="0.347656"/><stop stop-opacity="1" stop-color="rgb(55.775452%, 42.527771%, 91.877747%)" offset="0.351563"/><stop stop-opacity="1" stop-color="rgb(56.040955%, 42.512512%, 91.78772%)" offset="0.355469"/><stop stop-opacity="1" stop-color="rgb(56.307983%, 42.497253%, 91.697693%)" offset="0.359375"/><stop stop-opacity="1" stop-color="rgb(56.575012%, 42.481995%, 91.607666%)" offset="0.363281"/><stop stop-opacity="1" stop-color="rgb(56.842041%, 42.466736%, 91.517639%)" offset="0.367188"/><stop stop-opacity="1" stop-color="rgb(57.107544%, 42.451477%, 91.426086%)" offset="0.371094"/><stop stop-opacity="1" stop-color="rgb(57.374573%, 42.436218%, 91.33606%)" offset="0.375"/><stop stop-opacity="1" stop-color="rgb(57.640076%, 42.420959%, 91.246033%)" offset="0.378906"/><stop stop-opacity="1" stop-color="rgb(57.907104%, 42.405701%, 91.156006%)" offset="0.382813"/><stop stop-opacity="1" stop-color="rgb(58.172607%, 42.390442%, 91.065979%)" offset="0.386719"/><stop stop-opacity="1" stop-color="rgb(58.439636%, 42.375183%, 90.975952%)" offset="0.390625"/><stop stop-opacity="1" stop-color="rgb(58.705139%, 42.359924%, 90.885925%)" offset="0.394531"/><stop stop-opacity="1" stop-color="rgb(58.972168%, 42.344666%, 90.795898%)" offset="0.398438"/><stop stop-opacity="1" stop-color="rgb(59.239197%, 42.329407%, 90.704346%)" offset="0.402344"/><stop stop-opacity="1" stop-color="rgb(59.506226%, 42.314148%, 90.614319%)" offset="0.40625"/><stop stop-opacity="1" stop-color="rgb(59.771729%, 42.298889%, 90.524292%)" offset="0.410156"/><stop stop-opacity="1" stop-color="rgb(60.038757%, 42.285156%, 90.434265%)" offset="0.414062"/><stop stop-opacity="1" stop-color="rgb(60.30426%, 42.269897%, 90.344238%)" offset="0.417969"/><stop stop-opacity="1" stop-color="rgb(60.571289%, 42.254639%, 90.254211%)" offset="0.421875"/><stop stop-opacity="1" stop-color="rgb(60.836792%, 42.23938%, 90.164185%)" offset="0.425781"/><stop stop-opacity="1" stop-color="rgb(61.103821%, 42.224121%, 90.074158%)" offset="0.429688"/><stop stop-opacity="1" stop-color="rgb(61.369324%, 42.208862%, 89.982605%)" offset="0.433594"/><stop stop-opacity="1" stop-color="rgb(61.636353%, 42.193604%, 89.892578%)" offset="0.4375"/><stop stop-opacity="1" stop-color="rgb(61.901855%, 42.178345%, 89.802551%)" offset="0.441406"/><stop stop-opacity="1" stop-color="rgb(62.168884%, 42.163086%, 89.712524%)" offset="0.445313"/><stop stop-opacity="1" stop-color="rgb(62.435913%, 42.147827%, 89.622498%)" offset="0.449219"/><stop stop-opacity="1" stop-color="rgb(62.702942%, 42.132568%, 89.532471%)" offset="0.453125"/><stop stop-opacity="1" stop-color="rgb(62.968445%, 42.11731%, 89.440918%)" offset="0.457031"/><stop stop-opacity="1" stop-color="rgb(63.235474%, 42.102051%, 89.350891%)" offset="0.460938"/><stop stop-opacity="1" stop-color="rgb(63.500977%, 42.086792%, 89.260864%)" offset="0.464844"/><stop stop-opacity="1" stop-color="rgb(63.768005%, 42.071533%, 89.170837%)" offset="0.46875"/><stop stop-opacity="1" stop-color="rgb(64.033508%, 42.056274%, 89.080811%)" offset="0.472656"/><stop stop-opacity="1" stop-color="rgb(64.300537%, 42.041016%, 88.990784%)" offset="0.476563"/><stop stop-opacity="1" stop-color="rgb(64.56604%, 42.025757%, 88.900757%)" offset="0.480469"/><stop stop-opacity="1" stop-color="rgb(64.833069%, 42.010498%, 88.81073%)" offset="0.484375"/><stop stop-opacity="1" stop-color="rgb(65.100098%, 41.995239%, 88.719177%)" offset="0.488281"/><stop stop-opacity="1" stop-color="rgb(65.367126%, 41.97998%, 88.62915%)" offset="0.492188"/><stop stop-opacity="1" stop-color="rgb(65.632629%, 41.964722%, 88.539124%)" offset="0.496094"/><stop stop-opacity="1" stop-color="rgb(65.899658%, 41.949463%, 88.449097%)" offset="0.5"/><stop stop-opacity="1" stop-color="rgb(66.165161%, 41.934204%, 88.35907%)" offset="0.503906"/><stop stop-opacity="1" stop-color="rgb(66.43219%, 41.918945%, 88.269043%)" offset="0.507812"/><stop stop-opacity="1" stop-color="rgb(66.697693%, 41.903687%, 88.179016%)" offset="0.511719"/><stop stop-opacity="1" stop-color="rgb(66.964722%, 41.888428%, 88.088989%)" offset="0.515625"/><stop stop-opacity="1" stop-color="rgb(67.230225%, 41.873169%, 87.997437%)" offset="0.519531"/><stop stop-opacity="1" stop-color="rgb(67.497253%, 41.85791%, 87.90741%)" offset="0.523438"/><stop stop-opacity="1" stop-color="rgb(67.762756%, 41.842651%, 87.817383%)" offset="0.527344"/><stop stop-opacity="1" stop-color="rgb(68.029785%, 41.827393%, 87.727356%)" offset="0.53125"/><stop stop-opacity="1" stop-color="rgb(68.296814%, 41.812134%, 87.637329%)" offset="0.535156"/><stop stop-opacity="1" stop-color="rgb(68.563843%, 41.796875%, 87.547302%)" offset="0.539062"/><stop stop-opacity="1" stop-color="rgb(68.829346%, 41.781616%, 87.45575%)" offset="0.542969"/><stop stop-opacity="1" stop-color="rgb(69.096375%, 41.766357%, 87.365723%)" offset="0.546875"/><stop stop-opacity="1" stop-color="rgb(69.361877%, 41.751099%, 87.275696%)" offset="0.550781"/><stop stop-opacity="1" stop-color="rgb(69.628906%, 41.73584%, 87.185669%)" offset="0.554687"/><stop stop-opacity="1" stop-color="rgb(69.894409%, 41.720581%, 87.095642%)" offset="0.558594"/><stop stop-opacity="1" stop-color="rgb(70.161438%, 41.705322%, 87.005615%)" offset="0.5625"/><stop stop-opacity="1" stop-color="rgb(70.426941%, 41.690063%, 86.915588%)" offset="0.566406"/><stop stop-opacity="1" stop-color="rgb(70.69397%, 41.674805%, 86.825562%)" offset="0.570313"/><stop stop-opacity="1" stop-color="rgb(70.960999%, 41.659546%, 86.734009%)" offset="0.574219"/><stop stop-opacity="1" stop-color="rgb(71.228027%, 41.644287%, 86.643982%)" offset="0.578125"/><stop stop-opacity="1" stop-color="rgb(71.49353%, 41.629028%, 86.553955%)" offset="0.582031"/><stop stop-opacity="1" stop-color="rgb(71.760559%, 41.61377%, 86.463928%)" offset="0.585938"/><stop stop-opacity="1" stop-color="rgb(72.026062%, 41.598511%, 86.373901%)" offset="0.589844"/><stop stop-opacity="1" stop-color="rgb(72.293091%, 41.583252%, 86.283875%)" offset="0.59375"/><stop stop-opacity="1" stop-color="rgb(72.558594%, 41.567993%, 86.193848%)" offset="0.597656"/><stop stop-opacity="1" stop-color="rgb(72.825623%, 41.552734%, 86.103821%)" offset="0.601562"/><stop stop-opacity="1" stop-color="rgb(73.091125%, 41.537476%, 86.012268%)" offset="0.605469"/><stop stop-opacity="1" stop-color="rgb(73.358154%, 41.522217%, 85.922241%)" offset="0.609375"/><stop stop-opacity="1" stop-color="rgb(73.623657%, 41.506958%, 85.832214%)" offset="0.613281"/><stop stop-opacity="1" stop-color="rgb(73.890686%, 41.491699%, 85.742188%)" offset="0.617188"/><stop stop-opacity="1" stop-color="rgb(74.157715%, 41.47644%, 85.652161%)" offset="0.621094"/><stop stop-opacity="1" stop-color="rgb(74.424744%, 41.461182%, 85.562134%)" offset="0.625"/><stop stop-opacity="1" stop-color="rgb(74.690247%, 41.445923%, 85.470581%)" offset="0.628906"/><stop stop-opacity="1" stop-color="rgb(74.957275%, 41.430664%, 85.380554%)" offset="0.632812"/><stop stop-opacity="1" stop-color="rgb(75.222778%, 41.415405%, 85.290527%)" offset="0.636719"/><stop stop-opacity="1" stop-color="rgb(75.489807%, 41.400146%, 85.2005%)" offset="0.640625"/><stop stop-opacity="1" stop-color="rgb(75.75531%, 41.384888%, 85.110474%)" offset="0.644531"/><stop stop-opacity="1" stop-color="rgb(76.022339%, 41.369629%, 85.020447%)" offset="0.648437"/><stop stop-opacity="1" stop-color="rgb(76.287842%, 41.35437%, 84.93042%)" offset="0.652344"/><stop stop-opacity="1" stop-color="rgb(76.554871%, 41.339111%, 84.840393%)" offset="0.65625"/><stop stop-opacity="1" stop-color="rgb(76.821899%, 41.323853%, 84.74884%)" offset="0.660156"/><stop stop-opacity="1" stop-color="rgb(77.088928%, 41.31012%, 84.658813%)" offset="0.664063"/><stop stop-opacity="1" stop-color="rgb(77.354431%, 41.294861%, 84.568787%)" offset="0.667969"/><stop stop-opacity="1" stop-color="rgb(77.62146%, 41.279602%, 84.47876%)" offset="0.671875"/><stop stop-opacity="1" stop-color="rgb(77.886963%, 41.264343%, 84.388733%)" offset="0.675781"/><stop stop-opacity="1" stop-color="rgb(78.153992%, 41.249084%, 84.298706%)" offset="0.679688"/><stop stop-opacity="1" stop-color="rgb(78.419495%, 41.233826%, 84.208679%)" offset="0.683594"/><stop stop-opacity="1" stop-color="rgb(78.686523%, 41.218567%, 84.118652%)" offset="0.6875"/><stop stop-opacity="1" stop-color="rgb(78.952026%, 41.203308%, 84.0271%)" offset="0.691406"/><stop stop-opacity="1" stop-color="rgb(79.219055%, 41.188049%, 83.937073%)" offset="0.695312"/><stop stop-opacity="1" stop-color="rgb(79.486084%, 41.172791%, 83.847046%)" offset="0.699219"/><stop stop-opacity="1" stop-color="rgb(79.753113%, 41.157532%, 83.757019%)" offset="0.703125"/><stop stop-opacity="1" stop-color="rgb(80.018616%, 41.142273%, 83.666992%)" offset="0.707031"/><stop stop-opacity="1" stop-color="rgb(80.285645%, 41.127014%, 83.576965%)" offset="0.710938"/><stop stop-opacity="1" stop-color="rgb(80.551147%, 41.111755%, 83.485413%)" offset="0.714844"/><stop stop-opacity="1" stop-color="rgb(80.818176%, 41.096497%, 83.395386%)" offset="0.71875"/><stop stop-opacity="1" stop-color="rgb(81.083679%, 41.081238%, 83.305359%)" offset="0.722656"/><stop stop-opacity="1" stop-color="rgb(81.350708%, 41.065979%, 83.215332%)" offset="0.726562"/><stop stop-opacity="1" stop-color="rgb(81.616211%, 41.05072%, 83.125305%)" offset="0.730469"/><stop stop-opacity="1" stop-color="rgb(81.88324%, 41.035461%, 83.035278%)" offset="0.734375"/><stop stop-opacity="1" stop-color="rgb(82.148743%, 41.020203%, 82.945251%)" offset="0.738281"/><stop stop-opacity="1" stop-color="rgb(82.415771%, 41.004944%, 82.855225%)" offset="0.742187"/><stop stop-opacity="1" stop-color="rgb(82.6828%, 40.989685%, 82.763672%)" offset="0.746094"/><stop stop-opacity="1" stop-color="rgb(82.949829%, 40.974426%, 82.673645%)" offset="0.75"/><stop stop-opacity="1" stop-color="rgb(83.215332%, 40.959167%, 82.583618%)" offset="0.753906"/><stop stop-opacity="1" stop-color="rgb(83.482361%, 40.943909%, 82.493591%)" offset="0.757813"/><stop stop-opacity="1" stop-color="rgb(83.747864%, 40.92865%, 82.403564%)" offset="0.761719"/><stop stop-opacity="1" stop-color="rgb(84.014893%, 40.913391%, 82.313538%)" offset="0.765625"/><stop stop-opacity="1" stop-color="rgb(84.280396%, 40.898132%, 82.223511%)" offset="0.769531"/><stop stop-opacity="1" stop-color="rgb(84.547424%, 40.882874%, 82.133484%)" offset="0.773438"/><stop stop-opacity="1" stop-color="rgb(84.812927%, 40.867615%, 82.041931%)" offset="0.777344"/><stop stop-opacity="1" stop-color="rgb(85.079956%, 40.852356%, 81.951904%)" offset="0.78125"/><stop stop-opacity="1" stop-color="rgb(85.346985%, 40.837097%, 81.861877%)" offset="0.785156"/><stop stop-opacity="1" stop-color="rgb(85.614014%, 40.821838%, 81.771851%)" offset="0.789062"/><stop stop-opacity="1" stop-color="rgb(85.879517%, 40.80658%, 81.681824%)" offset="0.792969"/><stop stop-opacity="1" stop-color="rgb(86.146545%, 40.791321%, 81.591797%)" offset="0.796875"/><stop stop-opacity="1" stop-color="rgb(86.412048%, 40.776062%, 81.500244%)" offset="0.800781"/><stop stop-opacity="1" stop-color="rgb(86.679077%, 40.760803%, 81.410217%)" offset="0.804688"/><stop stop-opacity="1" stop-color="rgb(86.94458%, 40.745544%, 81.32019%)" offset="0.808594"/><stop stop-opacity="1" stop-color="rgb(87.211609%, 40.730286%, 81.230164%)" offset="0.8125"/><stop stop-opacity="1" stop-color="rgb(87.477112%, 40.715027%, 81.140137%)" offset="0.816406"/><stop stop-opacity="1" stop-color="rgb(87.744141%, 40.699768%, 81.05011%)" offset="0.820312"/><stop stop-opacity="1" stop-color="rgb(88.009644%, 40.684509%, 80.960083%)" offset="0.824219"/><stop stop-opacity="1" stop-color="rgb(88.276672%, 40.66925%, 80.870056%)" offset="0.828125"/><stop stop-opacity="1" stop-color="rgb(88.543701%, 40.653992%, 80.778503%)" offset="0.832031"/><stop stop-opacity="1" stop-color="rgb(88.81073%, 40.638733%, 80.688477%)" offset="0.835937"/><stop stop-opacity="1" stop-color="rgb(89.076233%, 40.623474%, 80.59845%)" offset="0.839844"/><stop stop-opacity="1" stop-color="rgb(89.343262%, 40.608215%, 80.508423%)" offset="0.84375"/><stop stop-opacity="1" stop-color="rgb(89.608765%, 40.592957%, 80.418396%)" offset="0.847656"/><stop stop-opacity="1" stop-color="rgb(89.875793%, 40.577698%, 80.328369%)" offset="0.851563"/><stop stop-opacity="1" stop-color="rgb(90.141296%, 40.562439%, 80.238342%)" offset="0.855469"/><stop stop-opacity="1" stop-color="rgb(90.408325%, 40.54718%, 80.148315%)" offset="0.859375"/><stop stop-opacity="1" stop-color="rgb(90.673828%, 40.531921%, 80.056763%)" offset="0.863281"/><stop stop-opacity="1" stop-color="rgb(90.940857%, 40.516663%, 79.966736%)" offset="0.867188"/><stop stop-opacity="1" stop-color="rgb(91.207886%, 40.501404%, 79.876709%)" offset="0.871094"/><stop stop-opacity="1" stop-color="rgb(91.474915%, 40.486145%, 79.786682%)" offset="0.875"/><stop stop-opacity="1" stop-color="rgb(91.740417%, 40.470886%, 79.696655%)" offset="0.878906"/><stop stop-opacity="1" stop-color="rgb(92.007446%, 40.455627%, 79.606628%)" offset="0.882812"/><stop stop-opacity="1" stop-color="rgb(92.272949%, 40.440369%, 79.515076%)" offset="0.886719"/><stop stop-opacity="1" stop-color="rgb(92.539978%, 40.42511%, 79.425049%)" offset="0.890625"/><stop stop-opacity="1" stop-color="rgb(92.805481%, 40.409851%, 79.335022%)" offset="0.894531"/><stop stop-opacity="1" stop-color="rgb(93.07251%, 40.394592%, 79.244995%)" offset="0.898438"/><stop stop-opacity="1" stop-color="rgb(93.338013%, 40.379333%, 79.154968%)" offset="0.902344"/><stop stop-opacity="1" stop-color="rgb(93.605042%, 40.365601%, 79.064941%)" offset="0.90625"/><stop stop-opacity="1" stop-color="rgb(93.870544%, 40.350342%, 78.974915%)" offset="0.910156"/><stop stop-opacity="1" stop-color="rgb(94.137573%, 40.335083%, 78.884888%)" offset="0.914062"/><stop stop-opacity="1" stop-color="rgb(94.404602%, 40.319824%, 78.793335%)" offset="0.917969"/><stop stop-opacity="1" stop-color="rgb(94.671631%, 40.304565%, 78.703308%)" offset="0.921875"/><stop stop-opacity="1" stop-color="rgb(94.937134%, 40.289307%, 78.613281%)" offset="0.925781"/><stop stop-opacity="1" stop-color="rgb(95.204163%, 40.274048%, 78.523254%)" offset="0.929687"/><stop stop-opacity="1" stop-color="rgb(95.469666%, 40.258789%, 78.433228%)" offset="0.933594"/><stop stop-opacity="1" stop-color="rgb(95.736694%, 40.24353%, 78.343201%)" offset="0.9375"/><stop stop-opacity="1" stop-color="rgb(96.002197%, 40.228271%, 78.253174%)" offset="0.941406"/><stop stop-opacity="1" stop-color="rgb(96.269226%, 40.213013%, 78.163147%)" offset="0.945313"/><stop stop-opacity="1" stop-color="rgb(96.534729%, 40.197754%, 78.071594%)" offset="0.949219"/><stop stop-opacity="1" stop-color="rgb(96.801758%, 40.182495%, 77.981567%)" offset="0.953125"/><stop stop-opacity="1" stop-color="rgb(97.068787%, 40.167236%, 77.891541%)" offset="0.957031"/><stop stop-opacity="1" stop-color="rgb(97.335815%, 40.151978%, 77.801514%)" offset="0.960938"/><stop stop-opacity="1" stop-color="rgb(97.601318%, 40.136719%, 77.711487%)" offset="0.964844"/><stop stop-opacity="1" stop-color="rgb(97.868347%, 40.12146%, 77.62146%)" offset="0.96875"/><stop stop-opacity="1" stop-color="rgb(98.13385%, 40.106201%, 77.531433%)" offset="0.972656"/><stop stop-opacity="1" stop-color="rgb(98.400879%, 40.090942%, 77.441406%)" offset="0.976562"/><stop stop-opacity="1" stop-color="rgb(98.666382%, 40.075684%, 77.349854%)" offset="0.980469"/><stop stop-opacity="1" stop-color="rgb(98.933411%, 40.060425%, 77.259827%)" offset="0.984375"/><stop stop-opacity="1" stop-color="rgb(99.198914%, 40.045166%, 77.1698%)" offset="0.988281"/><stop stop-opacity="1" stop-color="rgb(99.465942%, 40.029907%, 77.079773%)" offset="0.992188"/><stop stop-opacity="1" stop-color="rgb(99.731445%, 40.014648%, 76.989746%)" offset="0.996094"/><stop stop-opacity="1" stop-color="rgb(99.998474%, 39.99939%, 76.899719%)" offset="1"/></linearGradient><clipPath id="ac7b0d010a"><path d="M 91.289062 91.289062 L 283.699219 91.289062 L 283.699219 283.699219 L 91.289062 283.699219 Z M 91.289062 91.289062 " clip-rule="nonzero"/></clipPath><clipPath id="2702cba42c"><path d="M 187.496094 91.289062 C 134.363281 91.289062 91.289062 134.363281 91.289062 187.496094 C 91.289062 240.628906 134.363281 283.699219 187.496094 283.699219 C 240.628906 283.699219 283.699219 240.628906 283.699219 187.496094 C 283.699219 134.363281 240.628906 91.289062 187.496094 91.289062 Z M 187.496094 91.289062 " clip-rule="nonzero"/></clipPath><clipPath id="f41ea6e217"><path d="M 52.179688 172.609375 L 73.929688 172.609375 L 73.929688 194.359375 L 52.179688 194.359375 Z M 52.179688 172.609375 " clip-rule="nonzero"/></clipPath><clipPath id="20758f2e8b"><path d="M 300.828125 172.609375 L 322.578125 172.609375 L 322.578125 194.359375 L 300.828125 194.359375 Z M 300.828125 172.609375 " clip-rule="nonzero"/></clipPath><clipPath id="09226817f9"><path d="M 136 116.25 L 222 116.25 L 222 229 L 136 229 Z M 136 116.25 " clip-rule="nonzero"/></clipPath><clipPath id="f3cb4989d7"><path d="M 144.25 133.171875 L 259.84375 133.171875 L 259.84375 266.222656 L 144.25 266.222656 Z M 144.25 133.171875 " clip-rule="nonzero"/></clipPath></defs><g clip-path="url(#3c8b5dbeda)"><g clip-path="url(#721725e0b8)"><path fill="#f6f6f6" d="M 37.5 37.5 L 337.5 37.5 L 337.5 337.5 L 37.5 337.5 Z M 37.5 37.5 " fill-opacity="1" fill-rule="nonzero"/><path stroke-linecap="butt" transform="matrix(0.75, 0, 0, 0.75, 37.500002, 37.499998)" fill="none" stroke-linejoin="miter" d="M 200.00001 0.00000328333 C 89.54167 0.00000328333 -0.00000271667 89.541676 -0.00000271667 200.000016 C -0.00000271667 310.458357 89.54167 400.00003 200.00001 400.00003 C 310.458351 400.00003 400.000024 310.458357 400.000024 200.000016 C 400.000024 89.541676 310.458351 0.00000328333 200.00001 0.00000328333 Z M 200.00001 0.00000328333 " stroke="#000000" stroke-width="4" stroke-opacity="1" stroke-miterlimit="4"/></g></g><g clip-path="url(#bf26c72ea7)"><g clip-path="url(#8bfb88e662)"><path fill="url(#7753d9e306)" d="M 91.289062 91.289062 L 91.289062 283.710938 L 283.710938 283.710938 L 283.710938 91.289062 Z M 91.289062 91.289062 " fill-rule="nonzero"/></g></g><g clip-path="url(#ac7b0d010a)"><g clip-path="url(#2702cba42c)"><path stroke-linecap="butt" transform="matrix(0.75, 0, 0, 0.75, 91.290899, 91.290894)" fill="none" stroke-linejoin="miter" d="M 128.273602 -0.00244201 C 57.429847 -0.00244201 -0.00244801 57.429853 -0.00244801 128.273608 C -0.00244801 199.117363 57.429847 256.54445 128.273602 256.54445 C 199.117357 256.54445 256.544444 199.117363 256.544444 128.273608 C 256.544444 57.429853 199.117357 -0.00244201 128.273602 -0.00244201 Z M 128.273602 -0.00244201 " stroke="#000000" stroke-width="4" stroke-opacity="1" stroke-miterlimit="4"/></g></g><g clip-path="url(#f41ea6e217)"><path fill="#5e17eb" d="M 63.171875 172.609375 C 62.101562 181.660156 61.234375 182.527344 52.179688 183.601562 C 52.199219 183.601562 52.21875 183.605469 52.238281 183.605469 C 61.238281 184.675781 62.105469 185.558594 63.171875 194.59375 C 64.246094 185.539062 65.113281 184.671875 74.164062 183.601562 C 65.113281 182.527344 64.246094 181.660156 63.171875 172.609375 Z M 63.171875 172.609375 " fill-opacity="1" fill-rule="nonzero"/></g><g clip-path="url(#20758f2e8b)"><path fill="#5e17eb" d="M 311.820312 172.609375 C 310.75 181.660156 309.878906 182.527344 300.828125 183.601562 C 300.847656 183.601562 300.867188 183.605469 300.882812 183.605469 C 309.882812 184.675781 310.75 185.558594 311.820312 194.59375 C 312.890625 185.539062 313.761719 184.671875 322.8125 183.601562 C 313.761719 182.527344 312.890625 181.660156 311.820312 172.609375 Z M 311.820312 172.609375 " fill-opacity="1" fill-rule="nonzero"/></g><g clip-path="url(#09226817f9)"><path fill="#8b55ff" d="M 221.71875 228.460938 L 136.777344 228.460938 L 136.777344 116.273438 L 221.71875 116.273438 L 221.71875 228.460938 " fill-opacity="1" fill-rule="nonzero"/></g><path fill="#d8c8fc" d="M 217.515625 222.910156 L 140.980469 222.910156 L 140.980469 146.34375 L 217.515625 146.34375 L 217.515625 222.910156 " fill-opacity="1" fill-rule="nonzero"/><path fill="#ffffff" d="M 159.015625 164.40625 L 143.457031 164.40625 L 143.457031 148.835938 L 159.015625 148.835938 L 159.015625 164.40625 " fill-opacity="1" fill-rule="nonzero"/><path fill="#ffffff" d="M 177.589844 164.40625 L 162.027344 164.40625 L 162.027344 148.835938 L 177.589844 148.835938 L 177.589844 164.40625 " fill-opacity="1" fill-rule="nonzero"/><path fill="#ffffff" d="M 196.160156 164.40625 L 180.597656 164.40625 L 180.597656 148.835938 L 196.160156 148.835938 L 196.160156 164.40625 " fill-opacity="1" fill-rule="nonzero"/><path fill="#ffffff" d="M 214.734375 164.40625 L 199.171875 164.40625 L 199.171875 148.835938 L 214.734375 148.835938 L 214.734375 164.40625 " fill-opacity="1" fill-rule="nonzero"/><path fill="#ffffff" d="M 159.171875 182.789062 L 143.609375 182.789062 L 143.609375 167.21875 L 159.171875 167.21875 L 159.171875 182.789062 " fill-opacity="1" fill-rule="nonzero"/><path fill="#ffffff" d="M 177.742188 182.789062 L 162.179688 182.789062 L 162.179688 167.21875 L 177.742188 167.21875 L 177.742188 182.789062 " fill-opacity="1" fill-rule="nonzero"/><path fill="#ffffff" d="M 196.3125 182.789062 L 180.753906 182.789062 L 180.753906 167.21875 L 196.3125 167.21875 L 196.3125 182.789062 " fill-opacity="1" fill-rule="nonzero"/><path fill="#ffffff" d="M 214.886719 182.789062 L 199.324219 182.789062 L 199.324219 167.21875 L 214.886719 167.21875 L 214.886719 182.789062 " fill-opacity="1" fill-rule="nonzero"/><path fill="#ffffff" d="M 159.171875 201.167969 L 143.609375 201.167969 L 143.609375 185.601562 L 159.171875 185.601562 L 159.171875 201.167969 " fill-opacity="1" fill-rule="nonzero"/><path fill="#ffffff" d="M 177.742188 201.167969 L 162.179688 201.167969 L 162.179688 185.601562 L 177.742188 185.601562 L 177.742188 201.167969 " fill-opacity="1" fill-rule="nonzero"/><path fill="#ffffff" d="M 196.316406 201.167969 L 180.753906 201.167969 L 180.753906 185.601562 L 196.316406 185.601562 L 196.316406 201.167969 " fill-opacity="1" fill-rule="nonzero"/><path fill="#ffffff" d="M 214.886719 201.167969 L 199.324219 201.167969 L 199.324219 185.601562 L 214.886719 185.601562 L 214.886719 201.167969 " fill-opacity="1" fill-rule="nonzero"/><path fill="#ffffff" d="M 159.171875 219.550781 L 143.609375 219.550781 L 143.609375 203.984375 L 159.171875 203.984375 L 159.171875 219.550781 " fill-opacity="1" fill-rule="nonzero"/><path fill="#ffffff" d="M 177.742188 219.550781 L 162.179688 219.550781 L 162.179688 203.984375 L 177.742188 203.984375 L 177.742188 219.550781 " fill-opacity="1" fill-rule="nonzero"/><path fill="#ffffff" d="M 196.316406 219.550781 L 180.753906 219.550781 L 180.753906 203.984375 L 196.316406 203.984375 L 196.316406 219.550781 " fill-opacity="1" fill-rule="nonzero"/><path fill="#ffffff" d="M 214.886719 219.550781 L 199.324219 219.550781 L 199.324219 203.984375 L 214.886719 203.984375 L 214.886719 219.550781 " fill-opacity="1" fill-rule="nonzero"/><path fill="#ffffff" d="M 151.742188 135.476562 L 146.496094 135.476562 L 146.496094 126.664062 L 148.480469 126.664062 L 148.480469 133.863281 L 151.742188 133.863281 L 151.742188 135.476562 " fill-opacity="1" fill-rule="nonzero"/><path fill="#ffffff" d="M 156.738281 128.222656 C 156.039062 128.222656 155.488281 128.484375 155.078125 129.007812 C 154.667969 129.53125 154.464844 130.222656 154.464844 131.082031 C 154.464844 131.953125 154.667969 132.644531 155.078125 133.152344 C 155.488281 133.660156 156.023438 133.914062 156.6875 133.914062 C 157.371094 133.914062 157.914062 133.667969 158.316406 133.175781 C 158.71875 132.679688 158.917969 131.996094 158.917969 131.117188 C 158.917969 130.203125 158.722656 129.492188 158.335938 128.984375 C 157.945312 128.476562 157.414062 128.222656 156.738281 128.222656 Z M 156.652344 135.628906 C 155.390625 135.628906 154.363281 135.21875 153.566406 134.398438 C 152.773438 133.574219 152.375 132.503906 152.375 131.183594 C 152.375 129.792969 152.777344 128.667969 153.585938 127.804688 C 154.394531 126.945312 155.460938 126.515625 156.792969 126.515625 C 158.050781 126.515625 159.066406 126.925781 159.84375 127.75 C 160.617188 128.574219 161.007812 129.660156 161.007812 131.007812 C 161.007812 132.390625 160.605469 133.507812 159.800781 134.355469 C 158.996094 135.207031 157.945312 135.628906 156.652344 135.628906 " fill-opacity="1" fill-rule="nonzero"/><path fill="#ffffff" d="M 168.65625 128.28125 L 166.140625 128.28125 L 166.140625 135.476562 L 164.152344 135.476562 L 164.152344 128.28125 L 161.652344 128.28125 L 161.652344 126.664062 L 168.65625 126.664062 L 168.65625 128.28125 " fill-opacity="1" fill-rule="nonzero"/><path fill="#ffffff" d="M 176.027344 128.28125 L 173.511719 128.28125 L 173.511719 135.476562 L 171.523438 135.476562 L 171.523438 128.28125 L 169.023438 128.28125 L 169.023438 126.664062 L 176.027344 126.664062 L 176.027344 128.28125 " fill-opacity="1" fill-rule="nonzero"/><path fill="#ffffff" d="M 182.496094 135.476562 L 177.210938 135.476562 L 177.210938 126.664062 L 182.292969 126.664062 L 182.292969 128.28125 L 179.195312 128.28125 L 179.195312 130.238281 L 182.078125 130.238281 L 182.078125 131.851562 L 179.195312 131.851562 L 179.195312 133.863281 L 182.496094 133.863281 L 182.496094 135.476562 " fill-opacity="1" fill-rule="nonzero"/><path fill="#ffffff" d="M 185.890625 128.148438 L 185.890625 130.601562 L 186.75 130.601562 C 187.175781 130.601562 187.519531 130.480469 187.777344 130.234375 C 188.039062 129.984375 188.171875 129.675781 188.171875 129.304688 C 188.171875 128.535156 187.710938 128.148438 186.789062 128.148438 Z M 191.296875 135.476562 L 189.019531 135.476562 L 187.648438 133.207031 C 187.546875 133.035156 187.449219 132.882812 187.355469 132.746094 C 187.257812 132.613281 187.164062 132.496094 187.066406 132.398438 C 186.972656 132.304688 186.871094 132.230469 186.765625 132.179688 C 186.664062 132.128906 186.550781 132.101562 186.425781 132.101562 L 185.890625 132.101562 L 185.890625 135.476562 L 183.90625 135.476562 L 183.90625 126.664062 L 187.054688 126.664062 C 189.191406 126.664062 190.257812 127.460938 190.257812 129.058594 C 190.257812 129.367188 190.210938 129.652344 190.117188 129.910156 C 190.023438 130.171875 189.890625 130.40625 189.71875 130.613281 C 189.546875 130.824219 189.339844 131.003906 189.09375 131.15625 C 188.851562 131.308594 188.582031 131.425781 188.28125 131.511719 L 188.28125 131.535156 C 188.414062 131.578125 188.539062 131.644531 188.660156 131.734375 C 188.785156 131.828125 188.902344 131.9375 189.019531 132.058594 C 189.132812 132.183594 189.242188 132.3125 189.347656 132.453125 C 189.453125 132.597656 189.546875 132.734375 189.632812 132.871094 L 191.296875 135.476562 " fill-opacity="1" fill-rule="nonzero"/><path fill="#ffffff" d="M 198.761719 126.664062 L 195.890625 132.339844 L 195.890625 135.476562 L 193.90625 135.476562 L 193.90625 132.378906 L 191.113281 126.664062 L 193.378906 126.664062 L 194.800781 129.949219 C 194.824219 130.011719 194.890625 130.253906 195 130.667969 L 195.027344 130.667969 C 195.078125 130.375 195.144531 130.144531 195.214844 129.976562 L 196.660156 126.664062 L 198.761719 126.664062 " fill-opacity="1" fill-rule="nonzero"/><path fill="#ff0c08" d="M 194.691406 180.054688 L 188.28125 174.585938 L 192.878906 169.132812 L 192.347656 168.6875 L 187.75 174.136719 L 182.5625 169.710938 L 182.109375 170.242188 L 187.304688 174.667969 L 182.070312 180.871094 L 182.601562 181.320312 L 187.832031 175.117188 L 194.238281 180.582031 L 194.691406 180.054688 " fill-opacity="1" fill-rule="nonzero"/><path fill="#ff0c08" d="M 176.269531 198.4375 L 169.859375 192.96875 L 174.460938 187.515625 L 173.929688 187.070312 L 169.332031 192.519531 L 164.144531 188.09375 L 163.691406 188.621094 L 168.886719 193.050781 L 163.652344 199.253906 L 164.183594 199.703125 L 169.414062 193.5 L 175.820312 198.964844 L 176.269531 198.4375 " fill-opacity="1" fill-rule="nonzero"/><path fill="#ff0c08" d="M 213.414062 216.820312 L 207.003906 211.351562 L 211.605469 205.898438 L 211.074219 205.453125 L 206.476562 210.902344 L 201.285156 206.476562 L 200.835938 207.003906 L 206.027344 211.433594 L 200.796875 217.636719 L 201.328125 218.085938 L 206.558594 211.882812 L 212.964844 217.347656 L 213.414062 216.820312 " fill-opacity="1" fill-rule="nonzero"/><path fill="#f7d52f" d="M 213.109375 119.539062 L 213.574219 127.609375 L 220.480469 131.800781 L 212.953125 134.738281 L 211.105469 142.601562 L 205.988281 136.347656 L 197.9375 137.019531 L 202.300781 130.21875 L 199.175781 122.765625 L 206.992188 124.816406 L 213.109375 119.539062 " fill-opacity="1" fill-rule="nonzero"/><path fill="#f45931" d="M 210.1875 125.234375 L 210.421875 129.320312 L 213.917969 131.441406 L 210.105469 132.925781 L 209.171875 136.910156 L 206.582031 133.742188 L 202.503906 134.082031 L 204.714844 130.640625 L 203.132812 126.867188 L 207.085938 127.90625 L 210.1875 125.234375 " fill-opacity="1" fill-rule="nonzero"/><path fill="#d8c8fc" d="M 204.859375 142.605469 L 146.496094 142.605469 L 146.496094 139.351562 L 204.859375 139.351562 L 204.859375 142.605469 " fill-opacity="1" fill-rule="nonzero"/><g clip-path="url(#f3cb4989d7)"><path fill="#bc55ff" d="M 224.988281 266.222656 L 144.257812 239.808594 L 179.117188 133.179688 L 259.847656 159.59375 L 224.988281 266.222656 " fill-opacity="1" fill-rule="nonzero"/></g><path fill="#e7c8fc" d="M 222.71875 259.640625 L 149.980469 235.839844 L 173.769531 163.066406 L 246.507812 186.867188 L 222.71875 259.640625 " fill-opacity="1" fill-rule="nonzero"/><path fill="#ffffff" d="M 185.296875 185.84375 L 170.507812 181.003906 L 175.34375 166.207031 L 190.136719 171.046875 L 185.296875 185.84375 " fill-opacity="1" fill-rule="nonzero"/><path fill="#ffffff" d="M 202.949219 191.617188 L 188.160156 186.777344 L 192.996094 171.980469 L 207.789062 176.820312 L 202.949219 191.617188 " fill-opacity="1" fill-rule="nonzero"/><path fill="#ffffff" d="M 220.601562 197.394531 L 205.8125 192.554688 L 210.648438 177.757812 L 225.4375 182.597656 L 220.601562 197.394531 " fill-opacity="1" fill-rule="nonzero"/><path fill="#ffffff" d="M 238.253906 203.171875 L 223.464844 198.332031 L 228.300781 183.535156 L 243.089844 188.371094 L 238.253906 203.171875 " fill-opacity="1" fill-rule="nonzero"/><path fill="#ffffff" d="M 179.734375 203.363281 L 164.941406 198.523438 L 169.78125 183.726562 L 184.570312 188.566406 L 179.734375 203.363281 " fill-opacity="1" fill-rule="nonzero"/><path fill="#ffffff" d="M 197.382812 209.136719 L 182.59375 204.296875 L 187.429688 189.5 L 202.222656 194.339844 L 197.382812 209.136719 " fill-opacity="1" fill-rule="nonzero"/><path fill="#ffffff" d="M 215.035156 214.914062 L 200.246094 210.074219 L 205.082031 195.277344 L 219.875 200.117188 L 215.035156 214.914062 " fill-opacity="1" fill-rule="nonzero"/><path fill="#ffffff" d="M 232.6875 220.6875 L 217.898438 215.851562 L 222.734375 201.054688 L 237.523438 205.890625 L 232.6875 220.6875 " fill-opacity="1" fill-rule="nonzero"/><path fill="#ffffff" d="M 174.019531 220.832031 L 159.230469 215.996094 L 164.066406 201.199219 L 178.859375 206.035156 L 174.019531 220.832031 " fill-opacity="1" fill-rule="nonzero"/><path fill="#ffffff" d="M 191.671875 226.609375 L 176.882812 221.769531 L 181.71875 206.972656 L 196.511719 211.8125 L 191.671875 226.609375 " fill-opacity="1" fill-rule="nonzero"/><path fill="#ffffff" d="M 209.324219 232.386719 L 194.535156 227.546875 L 199.371094 212.75 L 214.160156 217.589844 L 209.324219 232.386719 " fill-opacity="1" fill-rule="nonzero"/><path fill="#ffffff" d="M 226.976562 238.160156 L 212.1875 233.320312 L 217.023438 218.523438 L 231.8125 223.363281 L 226.976562 238.160156 " fill-opacity="1" fill-rule="nonzero"/><path fill="#ffffff" d="M 168.308594 238.304688 L 153.519531 233.464844 L 158.355469 218.667969 L 173.148438 223.507812 L 168.308594 238.304688 " fill-opacity="1" fill-rule="nonzero"/><path fill="#ffffff" d="M 185.960938 244.082031 L 171.171875 239.242188 L 176.007812 224.445312 L 190.796875 229.285156 L 185.960938 244.082031 " fill-opacity="1" fill-rule="nonzero"/><path fill="#ffffff" d="M 203.613281 249.855469 L 188.824219 245.015625 L 193.660156 230.21875 L 208.449219 235.058594 L 203.613281 249.855469 " fill-opacity="1" fill-rule="nonzero"/><path fill="#ffffff" d="M 221.265625 255.632812 L 206.472656 250.792969 L 211.3125 235.996094 L 226.101562 240.835938 L 221.265625 255.632812 " fill-opacity="1" fill-rule="nonzero"/><path fill="#ffffff" d="M 187.375 156.082031 L 182.386719 154.453125 L 185.125 146.078125 L 187.011719 146.691406 L 184.773438 153.539062 L 187.875 154.554688 L 187.375 156.082031 " fill-opacity="1" fill-rule="nonzero"/><path fill="#ffffff" d="M 194.375 150.746094 C 193.710938 150.527344 193.105469 150.605469 192.554688 150.972656 C 192 151.34375 191.59375 151.9375 191.324219 152.753906 C 191.054688 153.582031 191.035156 154.304688 191.265625 154.914062 C 191.496094 155.523438 191.925781 155.933594 192.558594 156.136719 C 193.207031 156.351562 193.800781 156.285156 194.335938 155.941406 C 194.871094 155.597656 195.273438 155.007812 195.546875 154.175781 C 195.832031 153.304688 195.867188 152.570312 195.65625 151.964844 C 195.441406 151.363281 195.015625 150.957031 194.375 150.746094 Z M 191.992188 157.757812 C 190.792969 157.363281 189.941406 156.65625 189.441406 155.625 C 188.941406 154.597656 188.898438 153.457031 189.308594 152.203125 C 189.742188 150.878906 190.472656 149.933594 191.507812 149.367188 C 192.542969 148.800781 193.691406 148.726562 194.957031 149.136719 C 196.152344 149.53125 196.988281 150.238281 197.472656 151.261719 C 197.953125 152.285156 197.984375 153.4375 197.566406 154.71875 C 197.136719 156.035156 196.40625 156.972656 195.378906 157.527344 C 194.347656 158.082031 193.21875 158.160156 191.992188 157.757812 " fill-opacity="1" fill-rule="nonzero"/><path fill="#ffffff" d="M 205.683594 154.503906 L 203.296875 153.722656 L 201.058594 160.5625 L 199.167969 159.941406 L 201.402344 153.101562 L 199.027344 152.324219 L 199.53125 150.789062 L 206.1875 152.96875 L 205.683594 154.503906 " fill-opacity="1" fill-rule="nonzero"/><path fill="#ffffff" d="M 212.691406 156.796875 L 210.300781 156.015625 L 208.066406 162.855469 L 206.171875 162.234375 L 208.410156 155.394531 L 206.035156 154.617188 L 206.535156 153.082031 L 213.191406 155.261719 L 212.691406 156.796875 " fill-opacity="1" fill-rule="nonzero"/><path fill="#ffffff" d="M 216.601562 165.648438 L 211.582031 164.003906 L 214.320312 155.628906 L 219.148438 157.207031 L 218.644531 158.746094 L 215.703125 157.78125 L 215.09375 159.644531 L 217.832031 160.539062 L 217.332031 162.070312 L 214.59375 161.175781 L 213.96875 163.089844 L 217.101562 164.117188 L 216.601562 165.648438 " fill-opacity="1" fill-rule="nonzero"/><path fill="#ffffff" d="M 222.105469 159.742188 L 221.34375 162.070312 L 222.164062 162.339844 C 222.566406 162.472656 222.929688 162.460938 223.25 162.308594 C 223.578125 162.152344 223.800781 161.898438 223.914062 161.546875 C 224.152344 160.816406 223.835938 160.308594 222.960938 160.019531 Z M 224.96875 168.386719 L 222.800781 167.675781 L 222.203125 165.09375 C 222.160156 164.898438 222.113281 164.722656 222.066406 164.566406 C 222.019531 164.40625 221.964844 164.269531 221.90625 164.144531 C 221.84375 164.023438 221.769531 163.921875 221.6875 163.84375 C 221.601562 163.761719 221.503906 163.703125 221.386719 163.664062 L 220.878906 163.496094 L 219.832031 166.703125 L 217.945312 166.085938 L 220.683594 157.710938 L 223.671875 158.6875 C 225.703125 159.355469 226.472656 160.445312 225.976562 161.964844 C 225.878906 162.257812 225.746094 162.511719 225.578125 162.730469 C 225.40625 162.945312 225.207031 163.128906 224.976562 163.273438 C 224.75 163.417969 224.496094 163.527344 224.21875 163.59375 C 223.9375 163.660156 223.644531 163.691406 223.332031 163.679688 L 223.324219 163.703125 C 223.4375 163.78125 223.539062 163.886719 223.625 164.011719 C 223.714844 164.136719 223.792969 164.277344 223.863281 164.429688 C 223.933594 164.582031 224 164.742188 224.054688 164.90625 C 224.109375 165.074219 224.15625 165.234375 224.195312 165.390625 L 224.96875 168.386719 " fill-opacity="1" fill-rule="nonzero"/><path fill="#ffffff" d="M 234.800781 162.332031 L 230.308594 166.835938 L 229.335938 169.8125 L 227.449219 169.195312 L 228.410156 166.253906 L 227.53125 159.953125 L 229.6875 160.65625 L 230.011719 164.222656 C 230.015625 164.289062 230.007812 164.539062 229.980469 164.96875 L 230.003906 164.976562 C 230.148438 164.714844 230.28125 164.511719 230.402344 164.375 L 232.804688 161.675781 L 234.800781 162.332031 " fill-opacity="1" fill-rule="nonzero"/><path fill="#ff3c08" d="M 214.339844 211.8125 L 209.945312 204.621094 L 216.011719 200.867188 L 215.648438 200.277344 L 209.585938 204.027344 L 206.027344 198.207031 L 205.433594 198.570312 L 208.996094 204.394531 L 202.09375 208.664062 L 202.460938 209.253906 L 209.355469 204.988281 L 213.75 212.171875 L 214.339844 211.8125 " fill-opacity="1" fill-rule="nonzero"/><path fill="#ff3c08" d="M 191.125 223.554688 L 186.730469 216.367188 L 192.796875 212.613281 L 192.429688 212.019531 L 186.367188 215.773438 L 182.808594 209.953125 L 182.21875 210.316406 L 185.777344 216.136719 L 178.875 220.40625 L 179.242188 220.996094 L 186.140625 216.730469 L 190.53125 223.917969 L 191.125 223.554688 " fill-opacity="1" fill-rule="nonzero"/><path fill="#ff3c08" d="M 220.714844 252.578125 L 216.320312 245.386719 L 222.386719 241.636719 L 222.023438 241.042969 L 215.957031 244.796875 L 212.402344 238.976562 L 211.808594 239.335938 L 215.367188 245.160156 L 208.46875 249.429688 L 208.832031 250.019531 L 215.730469 245.753906 L 220.121094 252.941406 L 220.714844 252.578125 " fill-opacity="1" fill-rule="nonzero"/><path fill="#f7f12f" d="M 250.652344 160.023438 L 248.585938 167.835938 L 253.847656 173.96875 L 245.78125 174.417969 L 241.578125 181.320312 L 238.660156 173.785156 L 230.800781 171.917969 L 237.0625 166.8125 L 236.40625 158.757812 L 243.195312 163.136719 L 250.652344 160.023438 " fill-opacity="1" fill-rule="nonzero"/><path fill="#f47f31" d="M 246.101562 164.527344 L 245.058594 168.480469 L 247.722656 171.585938 L 243.636719 171.8125 L 241.507812 175.308594 L 240.03125 171.492188 L 236.050781 170.546875 L 239.222656 167.960938 L 238.890625 163.882812 L 242.328125 166.101562 L 246.101562 164.527344 " fill-opacity="1" fill-rule="nonzero"/><path fill="#e7c8fc" d="M 235.644531 179.378906 L 180.171875 161.226562 L 181.183594 158.136719 L 236.65625 176.289062 L 235.644531 179.378906 " fill-opacity="1" fill-rule="nonzero"/><path fill="#ff3c08" d="M 184.75 202.507812 C 183.679688 202.726562 181.382812 203.753906 178.707031 208.128906 L 188.410156 212.4375 L 184.75 202.507812 " fill-opacity="1" fill-rule="nonzero"/><path fill="#bcbec0" d="M 133.15625 165.953125 L 134.230469 167.105469 C 140.582031 160.203125 144.675781 156.886719 146.863281 155.371094 L 145.777344 154.203125 C 143.285156 156.199219 138.339844 160.246094 133.15625 165.953125 " fill-opacity="1" fill-rule="nonzero"/><path fill="#f26522" d="M 132.726562 152.871094 C 129.25 156.125 128.59375 161.078125 131.261719 163.929688 L 133.640625 166.472656 C 138.125 160.015625 143.320312 156.238281 146.085938 154.535156 L 143.851562 152.148438 C 141.1875 149.296875 136.207031 149.621094 132.726562 152.871094 " fill-opacity="1" fill-rule="nonzero"/><path fill="#e8de28" d="M 180.160156 190.984375 L 146.863281 155.371094 C 145.992188 155.976562 144.804688 156.875 143.300781 158.171875 L 176.464844 193.644531 C 177.648438 192.664062 178.894531 191.746094 180.160156 190.984375 " fill-opacity="1" fill-rule="nonzero"/><path fill="#f7f12f" d="M 176.464844 193.644531 L 143.300781 158.167969 C 141.691406 159.554688 139.699219 161.410156 137.3125 163.851562 L 170.558594 199.414062 C 172.128906 197.652344 174.183594 195.527344 176.464844 193.644531 " fill-opacity="1" fill-rule="nonzero"/><path fill="#e8de28" d="M 167.675781 202.878906 C 168.074219 202.359375 169.109375 201.039062 170.558594 199.414062 L 137.3125 163.851562 C 136.351562 164.839844 135.328125 165.914062 134.230469 167.105469 L 167.675781 202.878906 " fill-opacity="1" fill-rule="nonzero"/><path fill="#ead4ad" d="M 182.71875 203.46875 L 175.964844 192.828125 C 173.457031 194.542969 171.472656 196.847656 170.070312 198.851562 L 180.007812 206.214844 C 181.011719 204.894531 181.933594 204.027344 182.71875 203.46875 " fill-opacity="1" fill-rule="nonzero"/><path fill="#d8c09a" d="M 184.75 202.507812 L 182.242188 195.703125 L 180.722656 191.585938 L 180.023438 190.835938 C 178.542969 191.285156 177.191406 191.988281 175.964844 192.828125 L 182.71875 203.46875 C 183.582031 202.851562 184.28125 202.601562 184.75 202.507812 " fill-opacity="1" fill-rule="nonzero"/><path fill="#d8c09a" d="M 168.242188 203.488281 L 172.007812 205.15625 L 178.707031 208.128906 C 179.152344 207.398438 179.585938 206.769531 180.007812 206.214844 L 170.070312 198.851562 C 168.785156 200.679688 167.976562 202.253906 167.675781 202.878906 L 168.242188 203.488281 " fill-opacity="1" fill-rule="nonzero"/><g fill="#ff66c4" fill-opacity="1"><g transform="translate(79.504977, 155.223349)"><g><path d="M 6.941406 -13.125 C 10.746094 -21.140625 9.03125 -25.800781 2.710938 -29.382812 L 0.167969 -24.03125 C 3.585938 -22.074219 4.71875 -19.445312 2.648438 -15.082031 C 0.492188 -10.546875 -3.007812 -9.953125 -8.019531 -12.332031 C -13.101562 -14.742188 -14.785156 -17.96875 -12.617188 -22.535156 C -10.625 -26.730469 -7.957031 -27.425781 -4.46875 -26.148438 L -1.941406 -31.46875 C -8.390625 -33.902344 -13.171875 -32.285156 -16.878906 -24.476562 C -20.925781 -15.949219 -16.867188 -9.886719 -10.59375 -6.910156 C -4.214844 -3.882812 2.894531 -4.601562 6.941406 -13.125 Z M 6.941406 -13.125 "/></g></g></g><g fill="#ff66c4" fill-opacity="1"><g transform="translate(90.802799, 130.704887)"><g><path d="M 9.949219 -11.175781 C 16.03125 -18.632812 13.445312 -25.375 8.09375 -29.742188 C 2.828125 -34.035156 -4.410156 -35.316406 -10.496094 -27.859375 C -16.582031 -20.398438 -13.929688 -13.558594 -8.636719 -9.238281 C -3.253906 -4.847656 3.863281 -3.71875 9.949219 -11.175781 Z M -4.839844 -13.890625 C -9.140625 -17.398438 -10.355469 -20.628906 -6.871094 -24.898438 C -3.386719 -29.167969 0.0234375 -28.628906 4.320312 -25.121094 C 8.5625 -21.660156 9.777344 -18.429688 6.292969 -14.160156 C 2.808594 -9.890625 -0.601562 -10.429688 -4.839844 -13.890625 Z M -4.839844 -13.890625 "/></g></g></g><g fill="#ff66c4" fill-opacity="1"><g transform="translate(107.626098, 108.963589)"><g><path d="M 12.742188 -39.890625 L 4.839844 -34.265625 L 11.320312 -15.015625 L -4.753906 -27.433594 L -12.777344 -21.714844 L 1.785156 -1.269531 L 6.425781 -4.578125 L -6.011719 -22.039062 L 11.835938 -8.429688 L 17.25 -12.285156 L 10.257812 -33.488281 L 22.628906 -16.117188 L 27.304688 -19.445312 Z M 12.742188 -39.890625 "/></g></g></g><g fill="#ff66c4" fill-opacity="1"><g transform="translate(135.279022, 90.090376)"><g><path d="M 7.996094 -25.605469 L 6.257812 -29.789062 L -7.617188 -24.019531 L -5.875 -19.835938 L -1.589844 -21.621094 L 4.554688 -6.839844 L 0.269531 -5.058594 L 2.023438 -0.839844 L 15.894531 -6.609375 L 14.140625 -10.824219 L 9.851562 -9.042969 L 3.707031 -23.820312 Z M 7.996094 -25.605469 "/></g></g></g><g fill="#ff66c4" fill-opacity="1"><g transform="translate(151.275749, 82.749087)"><g><path d="M 15.648438 -28.734375 L 19.777344 -8.121094 C 19.117188 -9.296875 18.386719 -10.457031 17.734375 -11.40625 L 6.542969 -26.910156 L -2.785156 -25.042969 L 2.148438 -0.429688 L 7.550781 -1.511719 L 3.429688 -22.089844 C 4.050781 -20.90625 4.785156 -19.746094 5.589844 -18.597656 L 16.65625 -3.335938 L 25.984375 -5.207031 L 21.050781 -29.820312 Z M 15.648438 -28.734375 "/></g></g></g><g fill="#ff66c4" fill-opacity="1"><g transform="translate(177.180613, 77.218129)"><g><path d="M 13.625 1.207031 C 18.945312 1.425781 21.648438 -0.957031 22.792969 -3.894531 L 22.589844 0.933594 L 27.496094 1.136719 L 28.046875 -12.214844 L 13.640625 -12.8125 L 13.484375 -9.078125 L 22.421875 -8.707031 C 21.839844 -5.59375 20.035156 -3.0625 15.058594 -3.269531 C 10.003906 -3.476562 7.976562 -6.546875 8.210938 -12.203125 C 8.457031 -18.164062 11.023438 -20.816406 16.039062 -20.609375 C 20.226562 -20.433594 22.1875 -18.578125 22.410156 -15.695312 L 28.21875 -15.457031 C 27.984375 -20.792969 24.636719 -24.75 16.261719 -25.09375 C 6.796875 -25.484375 2.519531 -19.804688 2.214844 -12.488281 C 1.914062 -5.210938 5.367188 0.863281 13.625 1.207031 Z M 13.625 1.207031 "/></g></g></g><g fill="#ff66c4" fill-opacity="1"><g transform="translate(205.374219, 79.071916)"><g/></g></g><g fill="#ff66c4" fill-opacity="1"><g transform="translate(213.553544, 80.083763)"><g><path d="M 4.175781 -7.285156 C 2.8125 -2.921875 4.011719 2.121094 11.792969 4.910156 C 19.1875 7.558594 23.144531 5.566406 24.816406 0.914062 C 26.292969 -3.207031 24.691406 -6.347656 20.085938 -8.601562 L 15.363281 -10.976562 C 13.484375 -11.890625 13.035156 -13.210938 13.53125 -14.597656 C 14.195312 -16.445312 16.140625 -17.070312 19.019531 -16.039062 C 22.148438 -14.917969 23.203125 -12.9375 22.695312 -10.632812 L 27.992188 -8.734375 C 29.210938 -13.03125 27.519531 -17.484375 20.445312 -20.019531 C 13.800781 -22.402344 9.507812 -20.492188 7.980469 -16.226562 C 6.578125 -12.316406 8.097656 -9.167969 12.113281 -7.167969 L 17.09375 -4.621094 C 19.089844 -3.585938 19.824219 -2.277344 19.1875 -0.503906 C 18.511719 1.382812 16.894531 2.203125 13.304688 0.917969 C 9.574219 -0.417969 8.671875 -2.828125 9.433594 -5.402344 Z M 4.175781 -7.285156 "/></g></g></g><g fill="#ff66c4" fill-opacity="1"><g transform="translate(235.512354, 87.426171)"><g><path d="M 12.246094 8.59375 C 20.355469 13.78125 26.753906 10.433594 30.476562 4.613281 C 34.136719 -1.109375 34.574219 -8.449219 26.464844 -13.636719 C 18.355469 -18.820312 11.863281 -15.398438 8.183594 -9.644531 C 4.441406 -3.792969 4.136719 3.40625 12.246094 8.59375 Z M 13.238281 -6.410156 C 16.230469 -11.085938 19.296875 -12.660156 23.941406 -9.691406 C 28.585938 -6.722656 28.441406 -3.273438 25.449219 1.398438 C 22.503906 6.011719 19.433594 7.589844 14.789062 4.617188 C 10.148438 1.648438 10.289062 -1.796875 13.238281 -6.410156 Z M 13.238281 -6.410156 "/></g></g></g><g fill="#ff66c4" fill-opacity="1"><g transform="translate(258.922134, 102.06924)"><g><path d="M 9.8125 11.296875 C 16.429688 18.285156 23.445312 16.582031 28.460938 11.832031 C 33.394531 7.160156 35.589844 0.144531 28.972656 -6.84375 C 22.355469 -13.835938 15.230469 -12.078125 10.269531 -7.382812 C 5.226562 -2.605469 3.191406 4.304688 9.8125 11.296875 Z M 14.394531 -3.023438 C 18.425781 -6.839844 21.785156 -7.628906 25.574219 -3.625 C 29.363281 0.375 28.390625 3.6875 24.359375 7.5 C 20.386719 11.265625 17.027344 12.054688 13.238281 8.050781 C 9.449219 4.050781 10.421875 0.738281 14.394531 -3.023438 Z M 14.394531 -3.023438 "/></g></g></g><g fill="#ff66c4" fill-opacity="1"><g transform="translate(278.067115, 122.00672)"><g><path d="M 32.207031 5.773438 L 13.949219 16.203125 C 14.859375 15.203125 15.730469 14.140625 16.421875 13.222656 L 27.601562 -2.292969 L 22.882812 -10.550781 L 1.085938 1.902344 L 3.820312 6.6875 L 22.042969 -3.722656 C 21.117188 -2.761719 20.246094 -1.699219 19.410156 -0.570312 L 8.425781 14.75 L 13.144531 23.007812 L 34.941406 10.558594 Z M 32.207031 5.773438 "/></g></g></g><g fill="#ff66c4" fill-opacity="1"><g transform="translate(290.980764, 145.869117)"><g/></g></g><g fill="#000000" fill-opacity="1"><g transform="translate(59.486042, 220.963999)"><g><path d="M 0.328125 1.0625 L 11.171875 -2.25 L 12.296875 1.4375 C 12.679688 2.71875 12.773438 3.835938 12.578125 4.796875 C 12.378906 5.753906 11.929688 6.554688 11.234375 7.203125 C 10.546875 7.847656 9.65625 8.335938 8.5625 8.671875 C 7.46875 9.003906 6.453125 9.09375 5.515625 8.9375 C 4.585938 8.789062 3.773438 8.375 3.078125 7.6875 C 2.378906 7.007812 1.835938 6.03125 1.453125 4.75 Z M 2.625 2.515625 L 3.125 4.140625 C 3.40625 5.046875 3.769531 5.71875 4.21875 6.15625 C 4.664062 6.601562 5.203125 6.851562 5.828125 6.90625 C 6.460938 6.96875 7.171875 6.878906 7.953125 6.640625 C 8.734375 6.398438 9.363281 6.082031 9.84375 5.6875 C 10.332031 5.289062 10.644531 4.78125 10.78125 4.15625 C 10.925781 3.53125 10.859375 2.765625 10.578125 1.859375 L 10.078125 0.234375 Z M 2.625 2.515625 "/></g></g></g><g fill="#000000" fill-opacity="1"><g transform="translate(66.598336, 241.171419)"><g><path d="M 0.46875 1.015625 L 10.78125 -3.71875 L 11.640625 -1.859375 L 1.328125 2.875 Z M 0.46875 1.015625 "/></g></g></g><g fill="#000000" fill-opacity="1"><g transform="translate(72.919881, 253.846427)"><g><path d="M 2.46875 4.3125 C 2.039062 3.613281 1.773438 2.914062 1.671875 2.21875 C 1.566406 1.519531 1.644531 0.875 1.90625 0.28125 C 2.164062 -0.300781 2.625 -0.800781 3.28125 -1.21875 L 4.4375 0.640625 C 4 0.941406 3.722656 1.335938 3.609375 1.828125 C 3.492188 2.328125 3.601562 2.847656 3.9375 3.390625 C 4.226562 3.859375 4.566406 4.15625 4.953125 4.28125 C 5.347656 4.414062 5.738281 4.363281 6.125 4.125 C 6.507812 3.882812 6.738281 3.578125 6.8125 3.203125 C 6.882812 2.828125 6.859375 2.394531 6.734375 1.90625 C 6.617188 1.414062 6.5 0.894531 6.375 0.34375 C 6.164062 -0.570312 6.140625 -1.347656 6.296875 -1.984375 C 6.460938 -2.617188 6.878906 -3.144531 7.546875 -3.5625 C 8.109375 -3.925781 8.679688 -4.097656 9.265625 -4.078125 C 9.859375 -4.054688 10.414062 -3.867188 10.9375 -3.515625 C 11.457031 -3.171875 11.914062 -2.679688 12.3125 -2.046875 C 12.71875 -1.398438 12.957031 -0.757812 13.03125 -0.125 C 13.101562 0.5 13.019531 1.078125 12.78125 1.609375 C 12.550781 2.148438 12.160156 2.609375 11.609375 2.984375 L 10.4375 1.09375 C 10.757812 0.882812 10.972656 0.570312 11.078125 0.15625 C 11.179688 -0.257812 11.09375 -0.691406 10.8125 -1.140625 C 10.582031 -1.535156 10.285156 -1.800781 9.921875 -1.9375 C 9.566406 -2.082031 9.195312 -2.035156 8.8125 -1.796875 C 8.5 -1.597656 8.3125 -1.335938 8.25 -1.015625 C 8.1875 -0.691406 8.195312 -0.316406 8.28125 0.109375 C 8.375 0.535156 8.488281 1.015625 8.625 1.546875 C 8.757812 2.128906 8.835938 2.6875 8.859375 3.21875 C 8.878906 3.75 8.78125 4.242188 8.5625 4.703125 C 8.351562 5.171875 7.96875 5.582031 7.40625 5.9375 C 6.894531 6.25 6.347656 6.410156 5.765625 6.421875 C 5.179688 6.429688 4.597656 6.265625 4.015625 5.921875 C 3.441406 5.578125 2.925781 5.039062 2.46875 4.3125 Z M 2.46875 4.3125 "/></g></g></g><g fill="#000000" fill-opacity="1"><g transform="translate(83.943336, 270.114864)"><g><path d="M 0.71875 0.84375 L 9.34375 -6.53125 L 12.0625 -3.34375 C 12.65625 -2.65625 13.03125 -1.984375 13.1875 -1.328125 C 13.34375 -0.679688 13.3125 -0.078125 13.09375 0.484375 C 12.875 1.046875 12.515625 1.539062 12.015625 1.96875 C 11.546875 2.375 11.019531 2.640625 10.4375 2.765625 C 9.851562 2.898438 9.25 2.84375 8.625 2.59375 C 8 2.34375 7.382812 1.867188 6.78125 1.171875 L 5.40625 -0.453125 L 2.0625 2.40625 Z M 6.6875 -1.546875 L 7.984375 -0.015625 C 8.453125 0.523438 8.90625 0.8125 9.34375 0.84375 C 9.789062 0.882812 10.222656 0.722656 10.640625 0.359375 C 11.066406 -0.00390625 11.300781 -0.40625 11.34375 -0.84375 C 11.382812 -1.289062 11.171875 -1.785156 10.703125 -2.328125 L 9.40625 -3.859375 Z M 6.6875 -1.546875 "/></g></g></g><g fill="#000000" fill-opacity="1"><g transform="translate(97.375018, 284.659544)"><g><path d="M 0.828125 0.734375 L 8.28125 -7.8125 L 9.84375 -6.46875 L 3.453125 0.859375 L 7.25 4.171875 L 6.1875 5.390625 Z M 0.828125 0.734375 "/></g></g></g><g fill="#000000" fill-opacity="1"><g transform="translate(112.063737, 296.592751)"><g><path d="M 0.3125 0.203125 L 9.890625 -7.15625 L 11.875 -5.90625 L 9.28125 5.890625 L 7.421875 4.71875 L 8.0625 2.015625 L 4.328125 -0.359375 L 2.15625 1.359375 Z M 5.6875 -1.4375 L 8.46875 0.328125 L 9.59375 -4.53125 Z M 5.6875 -1.4375 "/></g></g></g><g fill="#000000" fill-opacity="1"><g transform="translate(130.542525, 307.327053)"><g><path d="M 3.703125 1.59375 L 5.296875 -2.109375 L 4.71875 -10.3125 L 6.859375 -9.375 L 7.09375 -3.59375 L 11.453125 -7.390625 L 13.59375 -6.46875 L 7.203125 -1.28125 L 5.609375 2.421875 Z M 3.703125 1.59375 "/></g></g></g><g fill="#000000" fill-opacity="1"><g transform="translate(149.280477, 314.586643)"><g><path d="M 1.078125 0.28125 L 4 -10.671875 L 5.984375 -10.140625 L 3.484375 -0.75 L 8.34375 0.546875 L 7.921875 2.109375 Z M 1.078125 0.28125 "/></g></g></g><g fill="#000000" fill-opacity="1"><g transform="translate(167.746911, 318.859863)"><g><path d="M 6.375 0.84375 C 5.238281 0.726562 4.273438 0.378906 3.484375 -0.203125 C 2.691406 -0.785156 2.101562 -1.535156 1.71875 -2.453125 C 1.332031 -3.378906 1.195312 -4.414062 1.3125 -5.5625 C 1.4375 -6.707031 1.78125 -7.695312 2.34375 -8.53125 C 2.90625 -9.363281 3.632812 -9.976562 4.53125 -10.375 C 5.425781 -10.78125 6.441406 -10.925781 7.578125 -10.8125 C 8.691406 -10.695312 9.644531 -10.347656 10.4375 -9.765625 C 11.226562 -9.191406 11.816406 -8.4375 12.203125 -7.5 C 12.597656 -6.570312 12.734375 -5.535156 12.609375 -4.390625 C 12.492188 -3.242188 12.148438 -2.257812 11.578125 -1.4375 C 11.015625 -0.613281 10.285156 0 9.390625 0.40625 C 8.492188 0.8125 7.488281 0.957031 6.375 0.84375 Z M 6.5625 -1 C 7.625 -0.882812 8.515625 -1.148438 9.234375 -1.796875 C 9.953125 -2.441406 10.375 -3.378906 10.5 -4.609375 C 10.632812 -5.835938 10.414062 -6.84375 9.84375 -7.625 C 9.269531 -8.40625 8.453125 -8.851562 7.390625 -8.96875 C 6.304688 -9.070312 5.40625 -8.800781 4.6875 -8.15625 C 3.976562 -7.507812 3.554688 -6.570312 3.421875 -5.34375 C 3.296875 -4.113281 3.515625 -3.109375 4.078125 -2.328125 C 4.648438 -1.546875 5.476562 -1.101562 6.5625 -1 Z M 6.5625 -1 "/></g></g></g><g fill="#000000" fill-opacity="1"><g transform="translate(190.544093, 320.279653)"><g><path d="M 3.75 -0.21875 L 3.203125 -9.875 L -0.109375 -9.6875 L -0.21875 -11.359375 L 8.46875 -11.859375 L 8.578125 -10.1875 L 5.25 -9.984375 L 5.796875 -0.328125 Z M 3.75 -0.21875 "/></g></g></g><g fill="#000000" fill-opacity="1"><g transform="translate(210.003862, 318.425297)"><g><path d="M 3.671875 -0.765625 L 1.703125 -10.234375 L -1.546875 -9.5625 L -1.890625 -11.203125 L 6.640625 -12.96875 L 6.984375 -11.328125 L 3.71875 -10.65625 L 5.6875 -1.1875 Z M 3.671875 -0.765625 "/></g></g></g><g fill="#000000" fill-opacity="1"><g transform="translate(228.973732, 313.723828)"><g><path d="M 1.046875 -0.375 L -2.859375 -11.015625 L 4.078125 -13.578125 L 4.65625 -12.015625 L -0.34375 -10.171875 L 0.71875 -7.25 L 5.265625 -8.921875 L 5.828125 -7.40625 L 1.28125 -5.734375 L 2.40625 -2.65625 L 7.40625 -4.5 L 7.984375 -2.9375 Z M 1.046875 -0.375 "/></g></g></g><g fill="#000000" fill-opacity="1"><g transform="translate(246.872179, 306.38618)"><g><path d="M 0.96875 -0.53125 L -4.484375 -10.484375 L -0.828125 -12.484375 C -0.0351562 -12.921875 0.691406 -13.144531 1.359375 -13.15625 C 2.023438 -13.164062 2.609375 -13.007812 3.109375 -12.6875 C 3.617188 -12.363281 4.023438 -11.925781 4.328125 -11.375 C 4.660156 -10.769531 4.804688 -10.128906 4.765625 -9.453125 C 4.734375 -8.785156 4.441406 -8.148438 3.890625 -7.546875 L 8.21875 -4.5 L 6.140625 -3.359375 L 2.15625 -6.265625 L 0.640625 -5.4375 L 2.78125 -1.515625 Z M -0.09375 -6.78125 L 1.640625 -7.734375 C 2.234375 -8.066406 2.59375 -8.453125 2.71875 -8.890625 C 2.84375 -9.335938 2.769531 -9.800781 2.5 -10.28125 C 2.238281 -10.757812 1.890625 -11.0625 1.453125 -11.1875 C 1.023438 -11.320312 0.503906 -11.222656 -0.109375 -10.890625 L -1.828125 -9.9375 Z M -0.09375 -6.78125 "/></g></g></g><g fill="#000000" fill-opacity="1"><g transform="translate(264.113511, 296.082308)"><g><path d="M 3.203125 -2.453125 L 0.75 -5.65625 L -6.703125 -9.15625 L -4.84375 -10.578125 L 0.328125 -7.953125 L -0.875 -13.625 L 0.984375 -15.03125 L 2.40625 -6.921875 L 4.859375 -3.71875 Z M 3.203125 -2.453125 "/></g></g></g><g fill="#000000" fill-opacity="1"><g transform="translate(279.481824, 283.2818)"><g><path d="M 1.453125 -1.28125 C 1.191406 -1.019531 0.890625 -0.882812 0.546875 -0.875 C 0.203125 -0.875 -0.0859375 -0.992188 -0.328125 -1.234375 C -0.566406 -1.484375 -0.679688 -1.773438 -0.671875 -2.109375 C -0.660156 -2.453125 -0.523438 -2.753906 -0.265625 -3.015625 C 0.00390625 -3.285156 0.304688 -3.421875 0.640625 -3.421875 C 0.984375 -3.429688 1.273438 -3.3125 1.515625 -3.0625 C 1.753906 -2.820312 1.867188 -2.53125 1.859375 -2.1875 C 1.859375 -1.851562 1.722656 -1.550781 1.453125 -1.28125 Z M 1.453125 -1.28125 "/></g></g></g><g fill="#000000" fill-opacity="1"><g transform="translate(289.012694, 273.28752)"><g><path d="M 3.953125 -4.828125 C 3.253906 -3.921875 2.457031 -3.289062 1.5625 -2.9375 C 0.675781 -2.59375 -0.242188 -2.507812 -1.203125 -2.6875 C -2.171875 -2.875 -3.113281 -3.320312 -4.03125 -4.03125 C -4.945312 -4.726562 -5.625 -5.523438 -6.0625 -6.421875 C -6.5 -7.316406 -6.660156 -8.238281 -6.546875 -9.1875 C -6.441406 -10.132812 -6.039062 -11.0625 -5.34375 -11.96875 C -4.507812 -13.050781 -3.5625 -13.734375 -2.5 -14.015625 C -1.4375 -14.296875 -0.351562 -14.148438 0.75 -13.578125 L -0.65625 -11.765625 C -1.226562 -12.023438 -1.789062 -12.082031 -2.34375 -11.9375 C -2.90625 -11.789062 -3.414062 -11.414062 -3.875 -10.8125 C -4.507812 -9.976562 -4.722656 -9.109375 -4.515625 -8.203125 C -4.304688 -7.296875 -3.710938 -6.46875 -2.734375 -5.71875 C -1.753906 -4.957031 -0.804688 -4.59375 0.109375 -4.625 C 1.035156 -4.664062 1.816406 -5.101562 2.453125 -5.9375 C 2.910156 -6.539062 3.148438 -7.125 3.171875 -7.6875 C 3.191406 -8.25 3.015625 -8.765625 2.640625 -9.234375 L 4.046875 -11.046875 C 4.835938 -10.160156 5.226562 -9.171875 5.21875 -8.078125 C 5.207031 -6.992188 4.785156 -5.910156 3.953125 -4.828125 Z M 3.953125 -4.828125 "/></g></g></g><g fill="#000000" fill-opacity="1"><g transform="translate(301.773521, 255.342412)"><g><path d="M 3.171875 -5.578125 C 2.640625 -4.578125 1.957031 -3.816406 1.125 -3.296875 C 0.289062 -2.785156 -0.625 -2.523438 -1.625 -2.515625 C -2.632812 -2.503906 -3.648438 -2.765625 -4.671875 -3.296875 C -5.691406 -3.835938 -6.476562 -4.523438 -7.03125 -5.359375 C -7.59375 -6.191406 -7.894531 -7.097656 -7.9375 -8.078125 C -7.976562 -9.066406 -7.734375 -10.0625 -7.203125 -11.0625 C -6.679688 -12.0625 -6.003906 -12.816406 -5.171875 -13.328125 C -4.335938 -13.847656 -3.414062 -14.113281 -2.40625 -14.125 C -1.40625 -14.132812 -0.394531 -13.867188 0.625 -13.328125 C 1.644531 -12.796875 2.429688 -12.113281 2.984375 -11.28125 C 3.546875 -10.445312 3.847656 -9.535156 3.890625 -8.546875 C 3.929688 -7.566406 3.691406 -6.578125 3.171875 -5.578125 Z M 1.515625 -6.453125 C 2.015625 -7.410156 2.097656 -8.335938 1.765625 -9.234375 C 1.441406 -10.140625 0.734375 -10.878906 -0.359375 -11.453125 C -1.453125 -12.035156 -2.460938 -12.207031 -3.390625 -11.96875 C -4.328125 -11.738281 -5.046875 -11.144531 -5.546875 -10.1875 C -6.054688 -9.226562 -6.144531 -8.296875 -5.8125 -7.390625 C -5.488281 -6.492188 -4.78125 -5.753906 -3.6875 -5.171875 C -2.59375 -4.597656 -1.578125 -4.425781 -0.640625 -4.65625 C 0.285156 -4.894531 1.003906 -5.492188 1.515625 -6.453125 Z M 1.515625 -6.453125 "/></g></g></g><g fill="#000000" fill-opacity="1"><g transform="translate(311.736642, 234.68296)"><g><path d="M 0.328125 -1.0625 L -10.484375 -4.484375 L -9.734375 -6.8125 L -1.78125 -8.09375 L -7.5625 -13.671875 L -6.828125 -16.015625 L 3.984375 -12.59375 L 3.359375 -10.609375 L -4.109375 -12.96875 L 0.859375 -8.078125 L 0.359375 -6.515625 L -6.515625 -5.390625 L 0.953125 -3.03125 Z M 0.328125 -1.0625 "/></g></g></g></svg>